# xmcd
#
# Track frame offsets:
#	150
#	12555
#	29212
#	40242
#	51382
#	66322
#	81000
#	92057
#	103560
#	118450
#	141542
#	154530
#	167062
#	181122
# Disc length: 2546 seconds
# Revision: 1
# Processed by: cddbd v1.5.1PL0 Copyright (c) Steve Scherf et al.
#
# Submitted via: libkcddb 0.10
#
DISCID=c809f00e
DTITLE=Various Artist - Super Sommer Ferienhits CD1
DYEAR=1900
DGENRE=
TTITLE0=Weisse Rosen aus Athen
TTITLE1=I Margarita I Margaro
TTITLE2=Stavros
TTITLE3=Doxa to Theo
TTITLE4=Oniro Demeno
TTITLE5=Griechischer Wein
TTITLE6=Who pays the ferryman
TTITLE7=Dancing Greeks
TTITLE8=Ein Schiff wird kommen
TTITLE9=O Kaimos
TTITLE10=Varka sto y alo (Boat in the sea)
TTITLE11=Zorba's Tanz
TTITLE12=Aponi Zoi
TTITLE13=Ich schau den weissen Wolken nach
EXTD=
EXTT0=
EXTT1=
EXTT2=
EXTT3=
EXTT4=
EXTT5=
EXTT6=
EXTT7=
EXTT8=
EXTT9=
EXTT10=
EXTT11=
EXTT12=
EXTT13=
PLAYORDER=
